# xmcd
#
# Track frame offsets:
# 150
# 13399
# 32915
# 45879
# 61221
# 72632
# 101164
# 117625
# 133294
# 148163
# 161207
# 174999
# 197673
# 215629
# 229488
# 246570
# 265329
# 283380
#
# Disc length: 3980 seconds
#
#
# Revision: 9
# Processed by: cddbd v1.5.2PL0 Copyright (c) Steve Scherf et al.
# Submitted via: FreeRIP 2.943 
#
DISCID=310f8a12
DTITLE=Lightfoot, Gordon - Gord's Gold Volume II
DYEAR=1988
DGENRE=Folk
TTITLE0=If It Should Please You
TTITLE1=Endless Wire
TTITLE2=Hangdog Hotel Room
TTITLE3=I'm Not Supposed To Care
TTITLE4=High and Dry
TTITLE5=The Wreck of the Edmund Fitzgerald
TTITLE6=The Pony Man
TTITLE7=Race Around the Ruins
TTITLE8=Christian Island
TTITLE9=All the Lovely Ladies
TTITLE10=Alberta Bound
TTITLE11=Cherokee Bend
TTITLE12=Triangle
TTITLE13=Shadows
TTITLE14=Make Way (for the Lady)
TTITLE15=Ghosts of Cape Horn
TTITLE16=Baby Step Back
TTITLE17=It's Worth Believin'
EXTD=
EXTT0=
EXTT1=
EXTT2=
EXTT3=
EXTT4=
EXTT5=
EXTT6=
EXTT7=
EXTT8=
EXTT9=
EXTT10=
EXTT11=
EXTT12=
EXTT13=
EXTT14=
EXTT15=
EXTT16=
EXTT17=
PLAYORDER=
